<?xml version="1.0" encoding="utf-8"?>
<!-- Generator: Adobe Illustrator 21.1.0, SVG Export Plug-In . SVG Version: 6.00 Build 0)  -->
<svg version="1.1" id="Слой_1" xmlns="http://www.w3.org/2000/svg" xmlns:xlink="http://www.w3.org/1999/xlink" x="0px" y="0px"
	 viewBox="0 0 361.7 435.2" style="enable-background:new 0 0 361.7 435.2;" xml:space="preserve">
<style type="text/css">
	.st0{fill:#7594CD;}
	.st1{fill:#486A9B;}
	.st2{fill:#AFAFAF;}
	.st3{fill:none;stroke:#294066;stroke-width:20;stroke-miterlimit:10;}
	.st4{fill:none;stroke:#294066;stroke-width:18;stroke-miterlimit:10;}
</style>
<title>статья</title>
<g>
	<path class="st0" d="M76.9,4.3h202.9c26.1,0,47.2,22.9,47.2,51.1v310c0,28.2-21.1,51.1-47.2,51.1H76.9c-26.1,0-47.2-22.9-47.2-51.1
		v-310C29.7,27.2,50.8,4.3,76.9,4.3z"/>
	<path class="st1" d="M98.7,26.2h157.1c33.3,0,60.2,29.2,60.2,65.2v1.8c0,36-27,65.2-60.2,65.2H98.7c-33.3,0-60.2-29.2-60.2-65.2
		v-1.8C38.4,55.4,65.4,26.2,98.7,26.2z"/>
	<rect x="42.9" y="187" class="st2" width="268.6" height="15.5"/>
	<rect x="42.9" y="225.4" class="st2" width="268.6" height="15.5"/>
	<rect x="42.9" y="261.8" class="st2" width="268.6" height="15.5"/>
	<rect x="43.6" y="307.1" class="st2" width="268.6" height="15.5"/>
	<rect x="42.9" y="349.3" class="st2" width="122.5" height="15.5"/>
	<path class="st3" d="M177.3,378.5l144.9-135.3c0,0,16.3-3,23.7,4.8c6.9,7.2,5,25,2.5,27.8L203.4,416.6l-39.5,5.6L177.3,378.5z"/>
	<line class="st4" x1="181.2" y1="371.9" x2="210.9" y2="408.8"/>
</g>
</svg>
