<svg id="Слой_1" data-name="Слой 1" xmlns="http://www.w3.org/2000/svg" viewBox="0 0 404.67 416.67"><defs><style>.cls-1{fill:#738bb7;}.cls-2{fill:#4c6690;}.cls-3{fill:#3a5070;}.cls-4{fill:#70777f;}.cls-5{fill:#aeaeae;}</style></defs><title>календарь</title><rect class="cls-1" y="20.33" width="404.67" height="396.33" rx="62.33" ry="62.33"/><rect class="cls-2" y="20.33" width="404.67" height="141.67" rx="62.33" ry="62.33"/><ellipse class="cls-3" cx="107.67" cy="63.67" rx="23" ry="20.67"/><ellipse class="cls-3" cx="299.67" cy="63.67" rx="23" ry="20.67"/><rect class="cls-4" x="90.67" width="32.67" height="77.33" rx="12" ry="12"/><rect class="cls-4" x="283.33" width="32.67" height="77.33" rx="12" ry="12"/><polygon class="cls-2" points="0 162 404.67 162 404.67 92.77 0 96.26 0 162"/><rect class="cls-5" x="34.58" y="291.33" width="70.17" height="70.17"/><rect class="cls-5" x="123.92" y="291.33" width="70.17" height="70.17"/><rect class="cls-5" x="213.58" y="291.33" width="70.17" height="70.17"/><rect class="cls-5" x="304.25" y="291.33" width="70.17" height="70.17"/><rect class="cls-5" x="33.42" y="192.17" width="70.17" height="70.17"/><rect class="cls-5" x="122.75" y="192.17" width="70.17" height="70.17"/><rect class="cls-5" x="212.42" y="192.17" width="70.17" height="70.17"/><rect class="cls-5" x="303.08" y="192.17" width="70.17" height="70.17"/></svg>