<?xml version="1.0" encoding="utf-8"?>
<!-- Generator: Adobe Illustrator 21.1.0, SVG Export Plug-In . SVG Version: 6.00 Build 0)  -->
<svg version="1.1" id="Слой_1" xmlns="http://www.w3.org/2000/svg" xmlns:xlink="http://www.w3.org/1999/xlink" x="0px" y="0px"
	 viewBox="0 0 500 500" style="enable-background:new 0 0 500 500;" xml:space="preserve">
<style type="text/css">
	.st0{fill:#657A9B;}
	.st1{fill:#738BB7;}
	.st2{fill:#9E9E9E;}
	.st3{fill:#AAAAAA;}
	.st4{fill:#969696;}
	.st5{fill:#556784;}
</style>
<g>
	<path class="st0" d="M254.9,0h114.2c0,0,1.8,138.3,0,153.2c-1.8,14.8-28.7,130.6-114.2,114V0z"/>
	<path class="st1" d="M254.9,0H140.7c0,0-1.8,138.3,0,153.2c1.8,14.8,28.7,130.6,114.2,114L254.9,0L254.9,0z"/>
	<path class="st0" d="M369.1,0h76.7c0,0,23.9,152.4-87.3,190.8L369.1,0z"/>
	<path class="st2" d="M370,24h48.4c0,0,11.8,94.5-49.8,132.7L370,24z"/>
	<path class="st1" d="M140.9,0H64.2c0,0-23.9,152.4,87.3,190.8L140.9,0z"/>
	<path class="st2" d="M140,24H91.7c0,0-11.8,94.5,49.8,132.7L140,24z"/>
	<path class="st3" d="M286.1,280.9h-60.3c-4.5,0-8.1-3.7-8.1-8.1l0,0c0-4.5,3.7-8.1,8.1-8.1h60.3c4.5,0,8.1,3.7,8.1,8.1l0,0
		C294.2,277.2,290.4,280.9,286.1,280.9z"/>
	<path class="st4" d="M237.1,277.1H273c4.2,0,7.6,3.3,7.6,7.6l0,0c0,4.2-3.3,7.6-7.6,7.6h-35.9c-4.2,0-7.6-3.3-7.6-7.6l0,0
		C229.5,280.4,232.9,277.1,237.1,277.1z"/>
	<polygon class="st1" points="254.9,292.2 237.1,292.2 184.7,367.3 254.9,367.3 	"/>
	<polygon class="st0" points="254.9,292.2 272.9,292.2 325.2,367.3 254.9,367.3 	"/>
	<path class="st3" d="M335.1,451H175c-5,0-9.2-4.1-9.2-9.2v-65.3c0-5,4.1-9.2,9.2-9.2h160.1c5,0,9.2,4.1,9.2,9.2v65.3
		C344.2,446.8,340.1,451,335.1,451z"/>
	<path class="st4" d="M353.6,500H156.3c-5.4,0-9.7-4.3-9.7-9.7v-34.4c0-5.4,4.3-9.7,9.7-9.7h197.2c5.4,0,9.7,4.3,9.7,9.7v34.4
		C363.3,495.7,359,500,353.6,500z"/>
	<path class="st1" d="M305.5,437.1h-101c-5.4,0-9.8-4.3-9.8-9.8V391c0-5.4,4.3-9.8,9.8-9.8h101c5.4,0,9.8,4.3,9.8,9.8v36.3
		C315.4,432.6,311,437.1,305.5,437.1z"/>
	<circle class="st5" cx="209" cy="396.5" r="5.5"/>
	<circle class="st5" cx="209" cy="422" r="5.5"/>
	<circle class="st5" cx="302.1" cy="396.4" r="5.5"/>
	<circle class="st5" cx="302.1" cy="421.7" r="5.5"/>
</g>
</svg>
