<svg id="Слой_1" data-name="Слой 1" xmlns="http://www.w3.org/2000/svg" viewBox="0 0 311 466"><defs><style>.cls-1{fill:#7594cd;}.cls-2,.cls-4{fill:none;}.cls-2{stroke:#fff;stroke-miterlimit:10;stroke-width:2px;}.cls-3{fill:#f9f9f9;}.cls-5{fill:#fff;}</style></defs><title>матч</title><path class="cls-1" d="M355.64,21.5H326.2A13,13,0,0,0,325,23c-2.65,3.53-6.85.05-11.24-1.5H166.36A54,54,0,0,0,112.5,75.36V433.64a54,54,0,0,0,53.86,53.86H355.64a54,54,0,0,0,53.86-53.86V75.36A54,54,0,0,0,355.64,21.5ZM235,25c24,0,49,0,73-1C284,25,259,25,235,25Z" transform="translate(-99 -21.5)"/><path class="cls-1" d="M325,23a13,13,0,0,1,1.2-1.5H313.76C318.15,23.05,322.35,26.53,325,23Z" transform="translate(-99 -21.5)"/><ellipse class="cls-2" cx="81.5" cy="89" rx="30.5" ry="28.5"/><ellipse class="cls-2" cx="240.5" cy="89" rx="30.5" ry="28.5"/><ellipse class="cls-2" cx="85.5" cy="379" rx="30.5" ry="28.5"/><ellipse class="cls-2" cx="244.5" cy="379" rx="30.5" ry="28.5"/><line class="cls-2" x1="310" y1="129.5" x2="13" y2="129.5"/><line class="cls-2" x1="311" y1="341.5" x2="13" y2="341.5"/><ellipse class="cls-2" cx="170" cy="228" rx="43" ry="39.5"/><circle class="cls-3" cx="170.5" cy="228" r="5.5"/><line class="cls-4" x1="5" y1="227.5" x2="170" y2="227.5"/><line class="cls-4" y1="232.5" x2="170" y2="232.5"/><line class="cls-4" x1="310" y1="227.5" x2="170" y2="227.5"/><line class="cls-5" x1="170" y1="227.5" x2="310" y2="227.5"/><line class="cls-2" x1="310" y1="227.5" x2="173" y2="227.5"/><line class="cls-2" x1="175" y1="227.5" x2="13" y2="227.5"/><path class="cls-5" d="M282.63,21.91c1.57.34.9.17.06,0h-.06Z" transform="translate(-99 -21.5)"/><path class="cls-5" d="M231.24,59.7c1.22,14.65,15.09,26.3,32.13,26.46,17.32.16,31.58-11.59,32.69-26.55C274.6,60.1,252.53,59.9,231.24,59.7Z" transform="translate(-99 -21.5)"/><path class="cls-5" d="M232,450.64c1.19-14.63,15-26.28,32.07-26.48,17.32-.2,31.61,11.5,32.75,26.43C275.37,450.14,253.31,450.39,232,450.64Z" transform="translate(-99 -21.5)"/><line class="cls-2" x1="16" y1="38.5" x2="308" y2="38.5"/><line class="cls-2" x1="16" y1="429.5" x2="308" y2="429.5"/><circle class="cls-5" cx="245" cy="379.5" r="5"/><circle class="cls-5" cx="86" cy="378.5" r="5"/><circle class="cls-5" cx="241" cy="89.5" r="5"/><circle class="cls-5" cx="82" cy="89.5" r="5"/></svg>