<svg id="Слой_1" data-name="Слой 1" xmlns="http://www.w3.org/2000/svg" viewBox="0 0 390 388"><defs><style>.cls-1{fill:#bababa;}.cls-2{fill:#748ebd;}.cls-3{fill:#e2e2e2;}.cls-4{fill:#72706e;}.cls-5{fill:#3a3a3a;}.cls-6{fill:#647da3;}</style></defs><title>ИГРОК</title><path class="cls-1" d="M176.76,338.06s37.59,18.73,80.33,12.48c0,0,24.53-13.32,35.22-26.22l-37.59-96.55L173.2,238.6l-6.33,84.06Z" transform="translate(-46 -50.39)"/><path class="cls-2" d="M46.57,259.41C43,239,50.93,38.85,222.27,50.91c0,0,131.77-2.08,170.16,48.27l16.62,23.3,13.45,3.75s10.68,26.22,13.06,47.86c0,0,2.37,43.28-4,52.85,0,0,17.41,4.16-81.12,18.73,0,0-11.08,1.25-10.68,6.66l-.4,62.84s4.75,20.81-48.67,14.57l-34-76.16-53.42-5s-24.14-7.91-26.51,89.47c0,0-5.54,34.12-56.59,37.45C120.18,375.52,50.14,279.8,46.57,259.41Z" transform="translate(-46 -50.39)"/><path class="cls-3" d="M206.84,277.3V306H241s15.7-13.32,9.37-30.38Z" transform="translate(-46 -50.39)"/><path class="cls-4" d="M157.08,364.62s12.46,29.1,67.37,54.07c0,0,11-6.55,21.07-6.24,0,0,17.81-1.25,20.18,4.68l43.92-19.35-3-66.9,17.73-1.46s6.3,76.78,2.44,80.22l-58.47,25.28s-25.23,7.8-45.41,0c0,0-72.12-25.18-87.26-59.41s14.25-18,14.25-18Z" transform="translate(-46 -50.39)"/><polygon class="cls-5" points="85.38 319.51 76.35 307.65 100.69 296.41 108.61 308.9 86.25 319.51 85.38 319.51"/><path class="cls-6" d="M46,255.5S82.1,153,409.05,122.49c0,0-206.31-4.69-359.68,87.66Z" transform="translate(-46 -50.39)"/><polygon class="cls-6" points="16.27 108.89 57.5 122.11 3.37 159.76 16.27 108.89"/><polygon class="cls-6" points="302 141.69 306.67 158.36 385.41 143.72 382.33 127.86 302 141.69"/><polygon class="cls-6" points="328.5 44.11 302 56.61 356.79 63.33 328.5 44.11"/></svg>