<svg id="Слой_1" data-name="Слой 1" xmlns="http://www.w3.org/2000/svg" viewBox="0 0 376.67 431.44"><defs><style>.cls-1{fill:#7591c5;}.cls-2{fill:#637ca5;}.cls-3{fill:#aeaeae;}.cls-4{fill:#587093;}</style></defs><title>СОСТАВ</title><rect class="cls-1" y="0.11" width="376.67" height="431.33" rx="14.83" ry="14.83"/><ellipse class="cls-2" cx="80.46" cy="77.04" rx="29.06" ry="30.39"/><path class="cls-2" d="M84.7,181.32s3.56-32,27.51-43c0,0,22.77,22.89,49.1,0,0,0,21.58,9.31,26.8,41.45,0,0,.36,4.45-3.2,5h-97S85.71,185.35,84.7,181.32Z" transform="translate(-56 -35.23)"/><ellipse class="cls-2" cx="80.46" cy="190.47" rx="29.06" ry="30.39"/><path class="cls-2" d="M84.7,294.74s3.56-32,27.51-43c0,0,22.77,22.89,49.1,0,0,0,21.58,9.31,26.8,41.45,0,0,.36,4.45-3.2,5h-97S85.71,298.78,84.7,294.74Z" transform="translate(-56 -35.23)"/><ellipse class="cls-2" cx="80.46" cy="307.46" rx="29.06" ry="30.39"/><path class="cls-2" d="M84.7,411.73s3.56-32,27.51-43c0,0,22.77,22.89,49.1,0,0,0,21.58,9.31,26.8,41.45,0,0,.36,4.45-3.2,5h-97S85.71,415.77,84.7,411.73Z" transform="translate(-56 -35.23)"/><rect class="cls-3" x="140.42" y="65.21" width="174.58" height="19.33"/><rect class="cls-3" x="140.42" y="103.11" width="208.49" height="19.33"/><rect class="cls-3" x="139.47" y="192.25" width="174.58" height="19.33"/><rect class="cls-3" x="139.47" y="230.14" width="208.49" height="19.33"/><rect class="cls-3" x="140.42" y="309.24" width="174.58" height="19.33"/><rect class="cls-3" x="140.42" y="347.13" width="208.49" height="19.33"/><path class="cls-4" d="M373.5,35.33,432.67,94.5V47.25s-2.42-13.33-16.42-11.92Z" transform="translate(-56 -35.23)"/></svg>