<svg id="Слой_1" data-name="Слой 1" xmlns="http://www.w3.org/2000/svg" viewBox="0 0 349 407"><defs><style>.cls-1{fill:#738bb7;}.cls-2{fill:#4c6895;}.cls-3{fill:#aeaeae;}.cls-4{fill:#b2b2b2;}</style></defs><title>таблица</title><rect class="cls-1" width="349" height="407" rx="12" ry="12"/><rect class="cls-2" x="15.5" y="15.5" width="105.23" height="34" rx="12" ry="12"/><rect class="cls-2" x="126.41" y="15.5" width="105.23" height="34" rx="12" ry="12"/><rect class="cls-2" x="238.27" y="15.5" width="105.23" height="34" rx="12" ry="12"/><rect class="cls-3" x="20.5" y="63.5" width="93" height="7"/><rect class="cls-3" x="20.5" y="95.5" width="93" height="7"/><rect class="cls-3" x="20.5" y="128.5" width="93" height="7"/><rect class="cls-3" x="20.5" y="164.5" width="93" height="7"/><rect class="cls-3" x="20.5" y="202.5" width="93" height="7"/><rect class="cls-3" x="20.5" y="239.5" width="93" height="7"/><rect class="cls-3" x="20.5" y="275.5" width="93" height="7"/><rect class="cls-3" x="20.5" y="307.5" width="93" height="7"/><rect class="cls-3" x="20.5" y="340.5" width="93" height="7"/><rect class="cls-3" x="20.5" y="376.5" width="93" height="7"/><rect class="cls-3" x="132.5" y="63.5" width="93" height="7"/><rect class="cls-3" x="132.5" y="95.5" width="93" height="7"/><rect class="cls-3" x="132.5" y="128.5" width="93" height="7"/><rect class="cls-3" x="132.5" y="164.5" width="93" height="7"/><rect class="cls-3" x="132.5" y="202.5" width="93" height="7"/><rect class="cls-3" x="132.5" y="239.5" width="93" height="7"/><rect class="cls-3" x="132.5" y="275.5" width="93" height="7"/><rect class="cls-3" x="132.5" y="307.5" width="93" height="7"/><rect class="cls-3" x="132.5" y="340.5" width="93" height="7"/><rect class="cls-3" x="132.5" y="376.5" width="93" height="7"/><rect class="cls-3" x="242.5" y="63.5" width="93" height="7"/><rect class="cls-3" x="242.5" y="95.5" width="93" height="7"/><rect class="cls-3" x="242.5" y="128.5" width="93" height="7"/><rect class="cls-3" x="242.5" y="164.5" width="93" height="7"/><rect class="cls-3" x="242.5" y="202.5" width="93" height="7"/><rect class="cls-3" x="242.5" y="239.5" width="93" height="7"/><rect class="cls-3" x="242.5" y="275.5" width="93" height="7"/><rect class="cls-3" x="242.5" y="307.5" width="93" height="7"/><rect class="cls-3" x="242.5" y="340.5" width="93" height="7"/><rect class="cls-3" x="242.5" y="376.5" width="93" height="7"/><rect class="cls-4" x="122.5" y="13.5" width="1" height="386"/><rect class="cls-4" x="234.5" y="13.5" width="1" height="386"/></svg>