<?xml version="1.0" encoding="utf-8"?>
<!-- Generator: Adobe Illustrator 21.1.0, SVG Export Plug-In . SVG Version: 6.00 Build 0)  -->
<svg version="1.1" id="Слой_1" xmlns="http://www.w3.org/2000/svg" xmlns:xlink="http://www.w3.org/1999/xlink" x="0px" y="0px"
	 viewBox="0 0 500 500" style="enable-background:new 0 0 500 500;" xml:space="preserve">
<style type="text/css">
	.st0{fill:#687B9B;}
	.st1{fill:#7591C5;}
	.st2{fill:#434343;}
	.st3{fill:#666666;}
	.st4{fill:#8E8E8E;}
	.st5{fill:#6985B2;}
	.st6{fill:#787878;}
	.st7{fill:#707070;}
	.st8{fill:#5A5A5A;}
	.st9{fill:#878787;}
	.st10{fill:#FFFAFA;}
	.st11{fill:#FFFFFF;}
	.st12{font-family:'Bahnschrift';}
	.st13{font-size:201.6412px;}
</style>
<path class="st0" d="M101.8,295.3l-44.7-18.9c0,0,14.7-174.3,177.3-241.9c0,0,99.5-62.4,161.7-7.9"/>
<path class="st1" d="M177.2,266.2v227.3l208-113.7V166c0,0,68.2,2.1,56.4-52.3c0,0-27.1-141.6-115.8-83.6
	c0,0-199.2,76.2-224.2,265.1c0,0,19.8,15.3,66.7,5.1L177.2,266.2z"/>
<path class="st2" d="M177.2,493.6c-40.1,15.7-42.9-34.2-42.9-34.2c20.6-2.9,19.5-17.4,19.5-17.4c6-70.6,11.3-147.8,23.4-175.8"/>
<path class="st3" d="M103.2,285.9"/>
<path class="st1" d="M101.1,293.8c0,0-23.4,138.9-14.7,148.4c8.8,9.5,73.9,31.1,72.1,3.6l10.7-149.7L101.1,293.8z"/>
<path class="st0" d="M57.8,273.5c0,0-29.5,137.1-18.7,146c0,0,41,22.4,45.7,22.4c4.7,0,21.6-153.4,16.2-152.2
	C104.1,282.3,57.8,273.5,57.8,273.5z"/>
<path class="st4" d="M441,105"/>
<path class="st1" d="M469,232.5l-29.6-128.8l-46.9,54l-7.3,8.3v113.2C385.2,279.2,467.6,299.2,469,232.5z"/>
<path class="st5" d="M411.7,282.3l-15.4-116.7l-10.9,0.6v113.2C385.2,279.2,405.8,282.3,411.7,282.3z"/>
<path class="st2" d="M177.2,269.7"/>
<path class="st6" d="M351.8,398.2c-2.3-3.3-4.1-6.9-5.2-11c-0.1-2.9-0.9-6.7-1-10.1c-1.7-50.8,0.8-147.7,39.6-201.5
	c0,0,0,119.9,0,176.1c0,4,0,8.2,0,12c0.2,6.2,0.4,12.3,0.7,18.4"/>
<path class="st7" d="M272.5,441.3l-94,53.1l-1.2-229.5C177.2,264.7,297.3,395.8,272.5,441.3z"/>
<ellipse transform="matrix(0.9172 -0.3985 0.3985 0.9172 -3.8112 107.7843)" class="st8" cx="257.4" cy="63.1" rx="60.6" ry="22.8"/>
<ellipse transform="matrix(0.9172 -0.3985 0.3985 0.9172 -3.7246 107.9646)" class="st6" cx="257.9" cy="62.9" rx="42.5" ry="16"/>
<path class="st9" d="M385.2,264.7c0,0,61.4,19.5,81.9-39.6c0,0,13.9,34.3-22.2,50c0,0-24.5,12.8-59.7,4.1V264.7z"/>
<path class="st9" d="M385.2,207.7c0,0,45.5,17.2,71.2-29.6l5.1,22.1c0,0-20.6,37.9-76.2,22.2v-14.7H385.2z"/>
<path class="st9" d="M45.4,337c0,0,80.6,41.7,119.4,22.5l-1.5,21.9c0,0-22.7,25.7-121.5-22.2L45.4,337z"/>
<path class="st9" d="M36.7,410.9c0,0,103.5,51.5,122,32.5l-2,18.9c0,0-58.7,14.5-123-29C33.6,433.3,30.9,420.6,36.7,410.9z"/>
<path class="st10" d="M385.2,194.3c0,0,39.8,17.1,68.2-28.9l2.6,13.3c0,0-21,46.1-70.7,28.3L385.2,194.3L385.2,194.3z"/>
<path class="st10" d="M49.7,314.2c0,0,73.6,47.9,116.7,24l-0.8,22.5c0,0-35.2,17.4-120.2-23.3L49.7,314.2z"/>
<text transform="matrix(0.9999 -1.259292e-02 1.259292e-02 0.9999 283.2493 274.4993)" class="st11 st12 st13">1</text>
<text transform="matrix(0.9999 -1.259292e-02 1.259292e-02 0.9999 228.5514 300.8951)" class="st11 st12 st13">1</text>
</svg>
