<svg id="Слой_1" data-name="Слой 1" xmlns="http://www.w3.org/2000/svg" viewBox="0 0 300 314"><defs><style>.cls-1{fill:#7594cd;}</style></defs><title>юзер</title><path class="cls-1" d="M391.21,381.8s4.19-45.6-36.22-81.18l-62.34-29.32L267.76,349,251,314.15l6.16-3,6.9-33.32s1.23-5.26-20.45-3l-21.44-.25s-5.91.25-2.71,10.27,5.91,25.81,5.91,25.81l5.42,1.25L216,347.73l-25.63-76.42-14.54,7s-49.77,19-59.14,32.32c0,0-22.42,26.81-23.9,55.62L91.33,381.8s6.41,12.78,42.87,15.28c0,0,35,8.64,81.07,7.89C215.28,405,322,417.13,391.21,381.8Z" transform="translate(-91.33 -93)"/><path class="cls-1" d="M184.47,170.33V137.76s7.64-32.32,26.61-37.83c0,0,11.83-8.14,35.73-6.77,0,0,22.18,1.88,31.54,10.52,0,0,15.4,9.52,19.59,30.94l.74,36.33s1.48,1.63,3.2,1c0,0,3.2,1.13,3.2,10.9,0,0-.37,10.15-1.85,15a61.46,61.46,0,0,1-14.78,24.3s-3.7,16.79-12.81,26.06c0,0-11.33,13.28-23.62,15.25,0,0-15.89,6.67-35.94-7.7,0,0-16.54-11.46-21.44-32.32l.37-1.6s-.46.94-7.21-7.33-9.24-21.33-9.24-21.33-2.22-12.5,0-16.44c0,0,.55-4.13,2-5,0,0,3.14.72,3.51-.38" transform="translate(-91.33 -93)"/></svg>